<svg width="95" height="20" viewBox="0 0 95 20" fill="none" xmlns="http://www.w3.org/2000/svg">
<path d="M0.524403 0.533325H3.4884L5.928 13.6305L8.2308 0.533325H11.2632L7.5468 19.0476H4.2408L0.524403 0.533325Z" fill="#101828"/>
<path d="M13.147 0.533325H20.899V2.91047H16.4986V8.23618H19.9642V10.5905H16.4986V16.739H20.9446V19.0476H13.147V0.533325Z" fill="#101828"/>
<path d="M22.8994 0.533325H27.3454C29.291 0.533325 30.7426 0.906659 31.7002 1.65332C32.6578 2.38475 33.1366 3.64951 33.1366 5.44762C33.1366 6.62095 32.9618 7.58095 32.6122 8.32762C32.2778 9.05905 31.6926 9.59238 30.8566 9.92762L33.433 19.0476H30.0586L27.847 10.5676H26.251V19.0476H22.8994V0.533325ZM27.3226 8.46475C28.2802 8.46475 28.9566 8.2438 29.3518 7.8019C29.7622 7.35999 29.9674 6.63619 29.9674 5.63047C29.9674 4.65524 29.785 3.94666 29.4202 3.50476C29.0706 3.06285 28.4322 2.84189 27.505 2.84189H26.251V8.46475H27.3226Z" fill="#101828"/>
<path d="M40.6296 19.299C38.7144 19.299 37.3464 18.7886 36.5256 17.7676C35.7048 16.7314 35.2944 15.2229 35.2944 13.2419V6.29333C35.2944 4.32762 35.7048 2.8419 36.5256 1.83619C37.3464 0.830471 38.7144 0.327614 40.6296 0.327614C42.5296 0.327614 43.89 0.830471 44.7108 1.83619C45.5316 2.8419 45.942 4.32762 45.942 6.29333V13.2419C45.942 15.2076 45.524 16.7086 44.688 17.7448C43.8672 18.781 42.5144 19.299 40.6296 19.299ZM40.6296 16.8076C41.3744 16.8076 41.876 16.5714 42.1344 16.099C42.3928 15.6267 42.522 14.941 42.522 14.0419V5.51619C42.522 4.61714 42.3928 3.93904 42.1344 3.4819C41.8912 3.02475 41.3896 2.79618 40.6296 2.79618C39.8696 2.79618 39.3604 3.03238 39.102 3.50476C38.8436 3.96191 38.7144 4.63238 38.7144 5.51619V14.0419C38.7144 14.941 38.8436 15.6267 39.102 16.099C39.3604 16.5714 39.8696 16.8076 40.6296 16.8076Z" fill="#101828"/>
<path d="M48.438 0.533325H50.7864L55.278 11.0933V0.533325H58.0596V19.0476H55.8252L51.3108 7.98476V19.0476H48.438V0.533325Z" fill="#101828"/>
<path d="M60.9535 0.533325H64.2823V19.0476H60.9535V0.533325Z" fill="#101828"/>
<path d="M72.1116 19.299C70.1964 19.299 68.836 18.7657 68.0304 17.699C67.24 16.6171 66.8448 15.0933 66.8448 13.1276V6.52191C66.8448 4.49524 67.24 2.95618 68.0304 1.90475C68.8208 0.853328 70.1812 0.327614 72.1116 0.327614C73.9204 0.327614 75.2048 0.784757 75.9648 1.69904C76.7248 2.61332 77.1048 3.93142 77.1048 5.65332V7.20762H73.8672V5.60762C73.8672 4.95238 73.8368 4.4419 73.776 4.07618C73.7152 3.69523 73.5556 3.39048 73.2972 3.1619C73.054 2.91809 72.6664 2.79618 72.1344 2.79618C71.5872 2.79618 71.1768 2.92571 70.9032 3.18476C70.6296 3.42857 70.4472 3.76381 70.356 4.19048C70.28 4.60191 70.242 5.14285 70.242 5.81332V13.8362C70.242 14.8876 70.3788 15.6495 70.6524 16.1219C70.926 16.579 71.42 16.8076 72.1344 16.8076C72.6512 16.8076 73.0312 16.6857 73.2744 16.4419C73.5328 16.1981 73.6924 15.8781 73.7532 15.4819C73.8292 15.0705 73.8672 14.5295 73.8672 13.859V12.1905H77.1048V13.6762C77.1048 15.459 76.7324 16.8457 75.9876 17.8362C75.2428 18.8114 73.9508 19.299 72.1116 19.299Z" fill="#101828"/>
<path d="M82.2129 0.533325H85.8153L89.5089 19.0476H86.3853L85.6557 14.7733H82.4409L81.6885 19.0476H78.5193L82.2129 0.533325ZM85.2909 12.6248L84.0369 4.85332L82.7829 12.6248H85.2909Z" fill="#101828"/>
<path d="M91.047 15.9162H94.0566V19.0476H91.047V15.9162Z" fill="#101828"/>
</svg>
